<?xml version="1.0" encoding="utf-8"?>
<!-- Generator: Adobe Illustrator 23.0.1, SVG Export Plug-In . SVG Version: 6.00 Build 0)  -->
<svg version="1.1" id="Warstwa_1" xmlns="http://www.w3.org/2000/svg" xmlns:xlink="http://www.w3.org/1999/xlink" x="0px" y="0px"
	 viewBox="0 0 640 480" style="enable-background:new 0 0 640 480;" xml:space="preserve">
<style type="text/css">
	.st0{fill:none;stroke:#000000;stroke-width:14;stroke-miterlimit:10;}
	.st1{fill:#FFFFFF;}
	.st2{fill:#00D151;}
</style>
<g>
	<g>
		<path class="st0" d="M270.5,231.5L270.5,231.5v30.04V370.5c0,6.08-4.92,11-11,11h-110c-6.08,0-11-4.92-11-11V102.14
			c0-10.85,8.79-19.64,19.64-19.64H390.5c6.08,0,11,4.92,11,11l0.41,102.3c0.05,11.74-10.28,20.82-21.92,19.27L357,212"/>
	</g>
</g>
<g>
	<path class="st1" d="M357.22,212.48l169.31,57.39l-51.65,34.43l31.57,37.3c0,0,8.61,14.35,2.87,20.09
		c-5.74,5.74-22.96,14.35-28.7,5.74c-5.74-8.61-41.98-43.69-41.98-43.69l-26.89,60.91L357.22,212.48z"/>
	<path class="st2" d="M485.22,305.98L543,268.59L340,196l72.59,203l37.39-57.78l29.37,29.37c4.71,4.71,10.96,7.3,17.62,7.3
		c0,0,0,0,0,0c6.65,0,12.91-2.59,17.62-7.3c9.71-9.72,9.71-25.52,0-35.24L485.22,305.98z M502.84,358.84
		c-1.57,1.57-3.65,2.43-5.87,2.43h0c-2.22,0-4.31-0.86-5.87-2.43l-43.9-43.9l-30.29,46.81l-49.45-138.29l138.29,49.45l-46.81,30.29
		l43.9,43.9C506.08,350.33,506.08,355.6,502.84,358.84z"/>
</g>
</svg>
