<?xml version="1.0" encoding="utf-8"?>
<!-- Generator: Adobe Illustrator 23.0.1, SVG Export Plug-In . SVG Version: 6.00 Build 0)  -->
<svg version="1.1" id="Warstwa_1" xmlns="http://www.w3.org/2000/svg" xmlns:xlink="http://www.w3.org/1999/xlink" x="0px" y="0px"
	 viewBox="0 0 640 480" style="enable-background:new 0 0 640 480;" xml:space="preserve">
<style type="text/css">
	.st0{fill:none;stroke:#000000;stroke-width:14;stroke-miterlimit:10;}
	.st1{fill-rule:evenodd;clip-rule:evenodd;fill:#B3B3B3;}
	.st2{fill:#FFFFFF;}
	.st3{fill:#00D151;}
</style>
<g>
	<g>
		<path class="st0" d="M407.5,83.5H175.14c-10.85,0-19.64,8.79-19.64,19.64V371.5c0,6.08,4.92,11,11,11h110c6.08,0,11-4.92,11-11
			v-139v0c0-6.08,4.92-11,11-11h109c6.08,0,11-4.92,11-11v-116C418.5,88.42,413.58,83.5,407.5,83.5z"/>
		<path class="st1" d="M407.5,83.5H175.14c-10.85,0-19.64,8.79-19.64,19.64V371.5c0,6.08,4.92,11,11,11h110c6.08,0,11-4.92,11-11
			v-139v0c0-6.08,4.92-11,11-11h109c6.08,0,11-4.92,11-11v-116C418.5,88.42,413.58,83.5,407.5,83.5z"/>
	</g>
</g>
<g>
	<path class="st2" d="M334.22,171.48l169.31,57.39l-51.65,34.43l31.57,37.3c0,0,8.61,14.35,2.87,20.09s-22.96,14.35-28.7,5.74
		c-5.74-8.61-41.98-43.69-41.98-43.69l-26.89,60.91L334.22,171.48z"/>
	<path class="st3" d="M462.22,264.98L520,227.59L317,155l72.59,203l37.39-57.78l29.37,29.37c4.71,4.71,10.96,7.3,17.62,7.3
		c0,0,0,0,0,0c6.65,0,12.91-2.59,17.62-7.3c9.71-9.72,9.71-25.52,0-35.24L462.22,264.98z M479.84,317.84
		c-1.57,1.57-3.65,2.43-5.87,2.43h0c-2.22,0-4.31-0.86-5.87-2.43l-43.9-43.9l-30.29,46.81l-49.45-138.29l138.29,49.45l-46.81,30.29
		l43.9,43.9C483.08,309.33,483.08,314.6,479.84,317.84z"/>
</g>
</svg>
