<?xml version="1.0" encoding="utf-8"?>
<!-- Generator: Adobe Illustrator 23.0.1, SVG Export Plug-In . SVG Version: 6.00 Build 0)  -->
<svg version="1.1" id="Warstwa_1" xmlns="http://www.w3.org/2000/svg" xmlns:xlink="http://www.w3.org/1999/xlink" x="0px" y="0px"
	 viewBox="0 0 640 480" style="enable-background:new 0 0 640 480;" xml:space="preserve">
<style type="text/css">
	.st0{fill:#B3B3B3;}
	.st1{fill:#FFFFFF;}
</style>
<g>
	<path class="st0" d="M119.34,379.5c-9.29,0-16.84-7.55-16.84-16.84V108.34c0-9.29,7.56-16.84,16.84-16.84h407.32
		c9.29,0,16.84,7.56,16.84,16.84v254.32c0,9.29-7.55,16.84-16.84,16.84H119.34z"/>
	<path class="st0" d="M526.66,92c9.01,0,16.34,7.33,16.34,16.34v254.32c0,9.01-7.33,16.34-16.34,16.34H119.34
		c-9.01,0-16.34-7.33-16.34-16.34V108.34c0-9.01,7.33-16.34,16.34-16.34H526.66 M526.66,91H119.34c-9.58,0-17.34,7.76-17.34,17.34
		v254.32c0,9.58,7.76,17.34,17.34,17.34h407.32c9.58,0,17.34-7.76,17.34-17.34V108.34C544,98.76,536.24,91,526.66,91L526.66,91z"/>
</g>
<path class="st1" d="M514.92,359.12L132.71,361c-6.74,0.03-12.21-5.35-12.21-12v-42.84l72.81-88.84l79.88,88.84l155.72-154.72
	L527,279.21v67.93C527,353.74,521.6,359.09,514.92,359.12z"/>
<circle class="st1" cx="225.5" cy="147.5" r="31"/>
</svg>
