<?xml version="1.0" encoding="utf-8"?>
<!-- Generator: Adobe Illustrator 23.0.1, SVG Export Plug-In . SVG Version: 6.00 Build 0)  -->
<svg version="1.1" id="Warstwa_1" xmlns="http://www.w3.org/2000/svg" xmlns:xlink="http://www.w3.org/1999/xlink" x="0px" y="0px"
	 viewBox="0 0 640 480" style="enable-background:new 0 0 640 480;" xml:space="preserve">
<style type="text/css">
	.st0{fill:#00D151;}
	.st1{fill:#FFFFFF;}
</style>
<g>
	<path class="st0" d="M526.66,380H119.34c-9.58,0-17.34-7.76-17.34-17.34V108.34c0-9.58,7.76-17.34,17.34-17.34h407.32
		c9.58,0,17.34,7.76,17.34,17.34v254.32C544,372.24,536.24,380,526.66,380z"/>
</g>
<path class="st1" d="M514.92,359.12L132.71,361c-6.74,0.03-12.21-5.35-12.21-12v-42.84l72.81-88.84l79.88,88.84l155.72-154.72
	L527,279.21v67.93C527,353.74,521.6,359.09,514.92,359.12z"/>
<circle class="st1" cx="225.5" cy="147.5" r="31"/>
</svg>
